<svg xmlns="http://www.w3.org/2000/svg">

	<symbol id="apple" viewBox="0 0 26 30">
		<path d="M21.0713 15.854C21.0569 13.3949 22.171 11.5416 24.4209 10.1751C23.1626 8.37227 21.2588 7.38072 18.7493 7.18962C16.3732 7.00213 13.7735 8.57419 12.8216 8.57419C11.8156 8.57419 9.51525 7.25453 7.70523 7.25453C3.9698 7.31222 0 10.2328 0 16.1749C0 17.9308 0.320901 19.7444 0.962703 21.6121C1.82084 24.0712 4.91447 30.0962 8.14151 29.9988C9.82894 29.9592 11.0224 28.8018 13.2182 28.8018C15.3492 28.8018 16.4525 29.9988 18.3346 29.9988C21.5905 29.952 24.3885 24.475 25.2033 22.0088C20.8369 19.9499 21.0713 15.9801 21.0713 15.854ZM17.2818 4.85678C19.1098 2.68619 18.944 0.710309 18.8899 0C17.2746 0.0937464 15.4069 1.09972 14.3432 2.33645C13.1714 3.66332 12.4827 5.30388 12.6305 7.15357C14.3756 7.28698 15.9693 6.38917 17.2818 4.85678Z"/>
	</symbol>

	<symbol id="chevron-down" width="23" height="15" viewBox="0 0 23 15">
		<path d="M3.70891 0L0 3.70628L11.1215 14.8278L22.243 3.70628L18.534 0L11.1215 7.41519L3.70891 0Z" />
	</symbol>

	<symbol id="logo" width="64" height="37" viewBox="0 0 64 37" stroke="none">
		<path d="M11.577 36.364h9.446l6.179-20.313h.284l6.179 20.313h9.446L53.835 0H42.827l-4.972 22.443h-.284L31.676 0h-8.665l-5.895 22.372h-.284L11.861 0H.852l10.725 36.364z" fill="var(--letter, #FFF)"/><path d="M58.972 36.236c2.61 0 4.936-2.202 4.972-4.972-.036-2.699-2.362-4.9-4.972-4.9-2.752 0-5.007 2.201-4.972 4.9-.035 2.77 2.22 4.972 4.972 4.972z" fill="var(--dot, #000)"/>
	</symbol>

	<symbol id="search" width="20" height="20" viewBox="0 0 20 20" fill="none">
		<path d="M18.375 18.375L14.4497 14.4428M16.625 9.1875C16.625 11.16 15.8414 13.0518 14.4466 14.4466C13.0518 15.8414 11.16 16.625 9.1875 16.625C7.21495 16.625 5.3232 15.8414 3.92839 14.4466C2.53359 13.0518 1.75 11.16 1.75 9.1875C1.75 7.21495 2.53359 5.3232 3.92839 3.92839C5.3232 2.53359 7.21495 1.75 9.1875 1.75C11.16 1.75 13.0518 2.53359 14.4466 3.92839C15.8414 5.3232 16.625 7.21495 16.625 9.1875V9.1875Z" stroke-width="2" stroke-linecap="round"/>
	</symbol>

	<symbol id="leaf" viewBox="0 0 1207 1215">
		<path d="M1185.52 328.105c-.94.509-3.33.588-4.27 1.097-5.31 12.6-10.25 29.249-14.33 43.004-7 26.275-18.57 51.984-33.33 75.171-11.81 18.549-25.37 35.005-39.87 51.97-11.46 14.715-23.35 30.877-40.56 38.374-4.7 2.544-22.93 8.164-27.15 3.763-5.45-5.555 12.08-24.771 16.69-29.702 24.89-28.06 48.49-51.777 64.81-85.527.43-1.448 1.37-1.957 1.8-3.405 6.47-13.833 13.88-28.175 19.83-42.947 4.16-11.367 9.75-30.188 13.18-41.771 3.65-12.306 2.17-20.62-2.07-32.905-2.93-8.744-6.59-17.703-9.52-26.448-3.94-10.622-8.62-21.459-13.51-31.572-2.04-3.755-3.87-8.235-6.63-12.206-12.76-23.473-29.84-40.352-54.58-50.049-15.52-6.178-25.05-19.244-38.99-28.103-2.96 4.637-2.93 12.521-2.39 21.344 1.05 9.762 3.04 19.015 3.71 24.727 1.64 13.088 4.01 26.391 2.53 39.342-1.6 16.062-6.54 32.712-9.81 49.068-9.9 46.68-24.368 92.795-39.557 138.695-6.521 19.33-11.617 52.472-38.496 50.013-5.991-14.377-4.813-28.992-4.359-43.821.453-14.829 6.412-29.601 10.491-43.355a952.447 952.447 0 0120.852-62.334c1.717-5.792 4.16-11.368 5.877-17.159 21.281-63.782 34.372-129.205 40.002-196.055.56-4.559.61-10.056 1.17-14.614 1.58-23.946-2.04-46.287-16.093-65.417-4.002-5.124-9.158-9.016-13.16-14.14C967.608 12.247 959.308.335 947.249-9.542c-21.136-16.506-47.238-24.247-69.314-40.244-14.233-10.522-31.206-17.13-48.607-22.29-12.326-3.656-26.612-8.68-40.36-4.882-.105 10.995 6.53 23.201 8.814 34.117l9.272 40.553c7.15 34.41 17.844 67.509 26.873 100.901 14.404 57.826 49.644 109.23 40.956 170.447-4.666 31.694-22.383 59.517-28.714 91.505-2.066 9.626-.798 39.929-14.116 42.28-9.989 1.763-9.535-13.066-10.503-20.441-1.345-11.425-.085-23.652-2.88-35.507-2.5-10.192-3.845-21.617-3.954-31.888 1.604-37.327 2.402-77.256-1.714-113.917-2.556-25.96-6.562-52.35-10.783-78.017-5.7-33.98-8.232-73.321-16.535-106.499-7.122-26.526-16.07-57.532-30.494-80.711-15.364-22.67-41.657-43.069-68.779-52.687l-7.251-2.15c-45.168-12.608-97.559-19.481-141.888-.337l-.725-.215c-13.452 5.461-16.19 9.375-9.77 22.304 8.462 16.686 18.937 29.243 31.372 43.17 20.869 22.727 41.523 46.178 59.358 71.156 23.664 34.583 50.872 67.854 69.837 104.98 11.82 23.982 18.941 50.509 20.557 76.978 2.127 27.407-6.837 52.314-6.671 78.353.138 18.155 4.707 39.986-1.385 57.869-1.717 5.791-5.099 11.876-12.269 12.113-5.504-.058-5.585-2.444-8.137-7.139-9.402-16.177-14.401-36.561-19.318-54.558-5.509-21.323-10.508-41.706-16.016-63.029-10.804-43.37-33.394-81.572-47.742-123.63-10.317-29.049-25.332-55.553-33.77-85.62-1.316-3.541-2.418-7.806-3.01-11.131-8.275-25.294-20.954-46.38-38.197-68.033-19.5-24.684-44.342-44.652-76.164-51.726-14.205-2.638-28.84-3.828-44.119-2.846-22.448 1.219-44.305 5.763-63.691 12.615-9.693 3.426-16.352 4.601-9.369 12.973 5.962 6.493 11.71 13.71 17.673 20.205 25.3 26.404 48.854 50.716 63.898 85.104 17.811 38.36 34.467 77.952 53.003 116.527 20.577 42.33 42.819 84.366 52.549 131.355 2.876 14.242 8.142 28.405 7.689 43.234-1.017 19.387-3.698 39.069-4.715 58.457-.883 16.277-13.257 39.384-29.909 21.057-17.163-19.266-21.384-44.932-27.699-68.856-3.601-14.457-6.477-28.698-9.353-42.94-5.242-27.544-6.214-56.185-13.845-83.65-6.907-27.25-14.538-54.715-20.505-82.474-5.08-22.77-8.575-48.222-19.079-68.663-11.82-23.982-25.814-48.61-43.273-69.538-10.475-12.557-19.07-26.132-31.854-36.223-9.077-6.63-20.625-15.568-31.931-17.345-8.915-1.857-18.608 1.57-27.361 4.487-20.112 6.636-42.021 16.678-60.091 27.07-11.491 6.831-23.493 12.723-36.73 17.46-10.633 3.935-26.26 8.751-34.852 16.442C113.751-7.849 152.15-4.337 162.301-1.327c24.438 8.035 47.425 15.64 66.037 35.335 24.065 25.25 42.572 55.941 58.69 86.711 14.076 27.013 32.421 52.93 39.623 81.843l17.038 64.908c2.795 11.854 12.387 40.689-2.73 46.444-9.693 3.426-22.343-9.776-27.877-17.718-10.045-14.005-12.062-31.142-15.959-47.261-4.703-18.721-8.681-37.227-15.049-55.654-6.367-18.428-12.01-36.64-18.377-55.067-4.031-13.009-9.001-25.508-14.911-37.499-7.226-15.532-17.486-28.813-29.841-40.353-15.335-14.786-32.765-27.83-50.624-39.427-11.253-7.275-20.841-14.843-33.677-19.438-13.562-4.809-23.684.065-34.88 8.558C89.508 18.04 80.273 27.902 72.702 37.47c-6.201 7.612-15.06 21.524-14.225 32.01 5.638-3.054 14.205 2.637 19.791 5.081 17.268 8.271 28.12 24.878 38.461 40.546 15.364 22.67 30.003 45.125 47.246 66.778 6.769 9.095 67.391 89.29 31.677 87.362-14.85-.466-28.172-19.38-36.176-29.629-15.069-21.008-27.103-44.266-45.931-63.238-11.414-12.048-24.279-24.526-36.848-35.342-9.588-7.569-17.053-8.995-26.074.143-9.96 9.648-18.36 29.996-17.66 43.592.458 6.436 4.03 13.009 8.247 17.41 2.981 3.246 10.098 8.507 9.32 13.79-1.984 12.012-29.212 13.388-37.455 17.244-10.552 6.322-15.57 20.585-11.54 33.593 7.846 26.742 37.55 48.939 63.947 58.343 22.047 8.113 44.711 6.171 66.892 11.173 8.915 1.857 34.507 8.658 17.887 19.481-11.491 6.831-28.893 1.67-41.138.402-13.184-.76-26.45-3.907-40.36-4.881-13.91-.975-28.034-1.226-40.44-7.268-13.133-6.257-18.237-15.646-26.966-26.111 2.313 18.8 1.94 36.016 7.154 55.676 4.998 20.384 15.96 47.262 34.329 59.797 9.802 6.845 24.008 9.483 36.978 10.966 7.68.703 15.36 1.405 21.375 2.401 34.345 3.885 68.151-1.053 102.172-6.716 8.324-1.469 17.588-3.447 26.637-4.701 21.642-3.82 44.305-5.763 64.74-2.853 23.336 3.77 20.01 25.623 3.687 38.109-17.049 12.27-45.727 13.216-65.49 16.019a414.536 414.536 0 01-74.434 6.278c-33.968.165-67.99 5.827-101.18.71-12.755-2.208-21.751-6.451-31.125-14.743-6.177-5.77-12.435-13.926-20.196-17.015-1.288 4.343-.83 10.779-1.393 15.338.162 4.773.11 10.27.271 15.044.892 26.254 6.777 51.626 17.657 76.117 5.185 11.776 8.786 26.232 18.455 36.188 2.47 2.308 4.942 4.616 8.352 6.415 10.232 5.397 22.988 7.604 33.353 9.891 17.831 3.712 35.876 6.701 54.566 7.518 24.919 1.089 45.621-2.222 70.298-8.293 25.616-6.579 51.527-11.496 75.612-20.892 18.661-7.067 36.301-16.012 55.177-23.803 17.936-7.282 35.147-14.779 54.104-20.183 11.868-2.781 36.463-11.239 45.058 2.336 15.15 23.394-32.991 50.071-47.464 53.655-28.221 7.382-58.645 6.235-87.323 7.182-32.008 1.533-61.168 9.425-91.187 20.211-32.623 11.59-67.154 16.313-100.908 15.754-12.46-.544-25.725-3.691-37.326-7.131-5.8-1.72-31.096-6.859-33.648-11.554 1.693 7.59 3.386 15.181 6.019 22.262 15.072 42.273 31.547 111.739 79.186 126.654 22.262 7.389 51.398 12.879 74.409 7.102 28.946-7.167 59.127-13.18 86.541-23.164 37.107-13.41 72.388-31.3 106.943-49.405 27.038-14.033 55.044-20.692 84.204-28.583 13.533-3.075 45.727-13.217 45.087 10.22-1.097 17.001-21.934 23.423-34.58 31.487-43.576 27.243-90.591 44.803-137.525 64.749-27.119 11.647-55.473 22.14-83.316 33.572-12.513 4.953-25.239 10.629-38.262 14.643-7.814 2.408-18.098 2.509-25.616 6.58-6.793 4.286-9.154 12.249-9.555 21.58-.401 9.332 2.098 19.524 3.066 26.899 4.059 20.893 12.254 43.8 25.495 60.328 9.965 11.618 24.575 26.189 38.513 35.048 3.196 2.523 7.332 4.538 10.957 5.608 16.033 7.12 37.136-5.522 52.467-12.001 62.051-25.702 114.996-65.918 165.175-110.105 22.525-20.097 47.011-38.825 71.496-57.554 23.332-17.495 35.305-31.271 67.179-29.694 5.505.057 7.709 8.587 8.381 14.299 1.592 39.85-59.49 72.928-86.795 93.183-49.697 37.241-109.654 61.201-162.842 94.257-14.525 9.085-30.553 23.225-37.666 39.235-7.113 16-5.043 27.64 1.029 44.41 7.389 20.3 12.736 36.85 32.045 48.88 1.235 1.15 2.685 1.58 4.646 2.95 19.309 12.03 44.419 25.78 66.223 26.73 47.449 2.26 88.039-49.5 115.664-81.47 22.793-26.32 43.625-54.01 67.142-80.111 7.142-8.121 14.497-16.965 21.128-26.025 5.262-7.103 9.798-14.421 13.61-21.953 7.623-15.066 13.5-32.225 23.084-45.922 7.06-10.507 25.903-47.447 40.538-46.258 15.575.681 4.865 23.495.624 32.476-17.822 38.818-38.33 76.052-59.349 112.348-13.314 23.615-21.767 49.465-33.416 72.785-12.16 22.38-25.207 39.78-41.288 59.42-13.772 17.18-27.544 34.36-44.001 49.96-8.591 7.69-28.755 19.82-31.76 29.96 23.764 2.32 47.61 7.03 71.561.74 37.484-9.36 75.989-16.84 106.032-41.01 46.582-37.37 60.589-89.93 75.454-145.37 4.079-13.76 8.372-28.234 13.176-41.773 5.019-14.263 10.763-28.311 15.566-41.851 3.302-8.471 6.522-19.33 11.702-28.819 4.752-8.042 10.738-14.93 20.942-17.417 18.742-4.68 19.07 26.132 21.946 40.374 5.375 24.433 7.421 49.454 10.192 74.686 3.872 29.51-10.649 59.85-34.92 77.86-17.988 12.78-32.542 13.97-52.653 20.61 10.851 16.61 38.59 16.17 55.534 14.89 56.039-5.43 108.073-37.25 143.187-81.18 10.819-12.54 19.893-27.18 27.303-41.52 5.18-9.491 8.4-20.35 11.62-31.208 1.93-6.516 3.35-13.97 4.56-20.7 4.91-24.534 13.44-47.992 12.34-73.522-.87-18.37-1.08-38.912-7.45-57.339-4.03-13.009-12.33-24.921-14.48-38.947-4.52-27.329-35.936-22.47-57.125-33.479-11.682-5.827-64.749-39.678-37.711-53.712 40.704-20.219 60.966 55.096 101.516 51.369 20.27-1.864 41.62-7.347 61.73-13.984 2.6-.803 5.42-2.329 8.75-2.917 13.24-4.738 26.18-11.138 38.91-16.815 9.18-4.365 19.09-8.514 28.48-13.603 2.82-1.527 4.92-3.269 7.74-4.795 10.76-7.046 23.76-18.944 31.03-30.175 3.17-5.361 4.59-12.815 6.01-20.269.35-3.834.48-6.945.62-10.056.21-.724.43-1.447-.3-1.663-.29-1.662.35-3.834.06-5.497.96-13.89.98-27.272 1.01-40.653-.22-20.542 1.22-41.377-.44-62.349-2.35-26.684-1.14-54.679-.88-82.166-.19-12.657-.6-24.591-1.51-37.464-.08-2.386-.16-4.773-.97-7.375-.38-4.049-.97-7.375-1.56-10.701-2.82-19.738-8.68-37.227-15.99-55.145zM612.691 650.456c-6.283 5.225-12.269 12.113-19.572 15.46-4.484 1.821-14.177 5.246-16.863 3.662-1.369 1.957-7.895.022-9.855-1.347-1.961-1.369-2.256-3.032-3.062-5.633-1.398-5.928-1.345-11.425.372-17.216 5.744-14.048 18.228-26.885 31.169-33.286 10.123-4.873 29.294-11.001 33.406 4.394 3.734 11.346-6.064 25.767-15.595 33.966zM590.719 482.49c-6.148 2.114-17.563-9.934-21.78-14.335-5.237-6.279-7.441-14.808-9.644-23.337-3.897-16.119-4.464-32.826 3.159-47.892 6.039-12.385 18.847-15.675 28.087-4.272 9.964 11.619 9.968 32.884 11.905 47.634 1.049 9.762-1.017 19.388-3.808 28.799-.348 3.834-.83 10.779-7.919 13.403zm132.829 219.743c-8 11.016-19.491 17.846-29.585 30.604-9.398 5.089-20.756 8.809-23.846-4.709-2.366-13.302 12.508-26.218 20.078-35.786 7.356-8.845 20.832-27.688 34.823-24.326 18.556 3.928 5.59 23.709-1.47 34.217zm-40.507-206.541c-3.225-10.407-1.374-19.309.182-29.874 1.77-11.288 5.93-22.656 9.875-33.299 2.657-6.3 4.374-12.091 9.502-16.084 4.914-3.268 8.673-5.303 14.044-2.135 6.096 3.383 8.648 8.077 11.281 15.158 3.439 9.684 5.213 19.66 7.712 29.852 2.5 10.192 3.549 19.954-.182 29.874-3.516 9.196-9.126 20.133-16.563 26.591-3.973 2.759-8.967 3.641-14.606 6.694-9.802-6.845-18.236-15.646-21.245-26.777zm123.216 225.556c.968 7.375-5.877 17.158-9.259 23.243-3.383 6.085-5.692 8.551-10.094 12.758-4.27 1.097-5.854 3.777-7.466-1.426-2.552-4.695-1.264-9.038.025-13.381 2.013-4.129 3.515-9.196 5.528-13.325 2.739-3.913 5.987-6.887 9.236-9.862 4.403-4.207 10.041-7.26 12.03 1.993zm16.262-190.494c-3.945 10.644-5.367 18.098-18.39 22.112-6.659 1.175-10.823-8.723-10.77-14.22.777-5.283 2.495-11.074 3.998-16.141 2.576-8.687 4.937-16.65 8.238-25.122 1.503-5.067 3.65-12.306 6.603-16.943 5.261-7.103 13.022-4.014 15.441 3.791 4.755 13.224-.531 33.708-5.12 46.523zm81.125 21.696c1.183 6.651-.883 16.277-3.54 22.577-2.228 4.852-8.214 11.74-11.463 14.714-11.682-5.827-6.744-22.476-2.503-31.457 2.013-4.128 4.16-11.367 8.858-13.912 4.189-3.483 7.761 3.089 8.648 8.078z"/><path d="M1057.18 367.225c3.43-11.582 5.93-22.656 8.64-34.453-2.71 11.797-5.42 23.594-8.64 34.453z"/><path d="M981.159 636.867c31.521-15.854 59.471-38.28 81.031-65.753-25.7 25.459-56.41 43.914-90.7 55.798 20.97-9.533 38.66-23.975 53.37-41.664-21.23 15.754-45.532 25.874-71.443 30.791 22.095-18.649 40.404-43.147 51.673-70.519-12.266 12.112-26.066 21.409-40.806 31.213 37.906-32.073 71.006-71.874 97.796-114.333-29.1 23.659-60.97 43.348-95.095 60.005 30.42-20.119 52.325-51.426 66.985-84.883 9.77-22.304 16.85-46.193 22.99-69.573-13.73 46.33-35.24 89.57-66.028 126.905 17.588-24.713 28.348-53.024 35.488-82.41 7.13-29.386 10.21-58.4 14.45-88.646-11.24 35.256-14.73 73.602-31.56 106.414-13.955 25.788-34.519 47.254-56.32 67.566 13.906-20.291 23.165-43.534 25.685-67.989-4.885 11.152-11.005 21.151-17.851 30.934-2.657 6.3-6.764 12.17-11.678 15.438-8.51 10.078-17.531 19.216-27.787 27.201 4.241-8.981 7.543-17.453 10.333-26.864-1.612-5.203-3.009-11.131-2.957-16.628-4.751 8.042-10.738 14.93-16.939 22.541 15.404-46.623 24.283-95.182 28.596-144.307-3.722 52.451-23.61 100.895-53.73 143.942 24.238-47.154 35.345-100.565 34.717-154.306-8.664 47.835-22.618 94.889-39.983 140.143 18.596-65.366 27.766-133.527 23.322-201.001-5.034 70.176-24.918 139.885-60.405 201.03 19.001-53.433 27.851-109.875 24.967-166.648-7.186 56.149-21.622 110.148-46.934 160.921 8.187-19.624 11.808-39.814 12.529-60.865-.94.509-2.095 1.742-3.545 1.312-.939.509-1.665.294-2.39.079-4.265 22.362-10.705 44.079-20.771 64.721 12.666-42.71 14.967-87.707 5.828-131.37-2.3 44.996-10.616 88.996-25.671 131.785 13.147-49.655 13.755-102.242 2.494-152.047-1.79 45.935-11.26 91.168-26.531 134.681 17.336-53.139 21.622-110.148 12.803-165.53-1.628 50.709-8.036 101.576-18.794 151.152 7.858-50.436 3.256-101.417-13.214-149.618-.907 29.659-1.599 58.593-1.781 88.467-.948-42.022-8.341-83.593-23.547-122.755 4.091 50.042 2.678 100.027-5.905 150.249 4.585-34.081.55-68.355-10.358-100.73.62 11.21.515 22.204-2.706 33.063l-.858 2.895c-3.755 23.301-8.235 46.387-14.165 69.043 4.346-19.975 5.578-40.087 3.694-60.334l-.725-.215c-5.505-.058-5.586-2.444-8.352-6.415-2.119 15.123-4.237 30.246-8.531 44.724 2.815-22.792 2.515-45.72-2.054-67.552-3.439-9.683-5.938-19.875-8.652-29.343-2.009 25.394-3.589 49.34-6.323 74.519 2.167-41.886-3.346-84.475-17.612-124.146 1.43 35.077.899 68.785-1.511 103.511 1.199-49.261-9.551-98.128-30.935-143.06 6.668 41.355 9.281 83.084 6.174 125.478-6.133-53.798-19.65-106.635-41.41-155.617 9.863 43.879 13.068 88.933 10.042 133.714-.6-45.857-11.699-90.889-32.705-131.771 5.78 36.367 12.071 73.673 13.072 110.197.786 37.249-3.933 74.44-18.077 108.836 6.25-34.374 2.43-69.372-8.05-103.195 6.186 48.301-3.122 98.307-25.347 141.333 5.61-10.938 7.809-23.674 6.679-35.823-5.744 14.048-14.683 25.573-25.583 35.73 3.945-10.644 5.071-19.761 3.511-30.462-.911 8.393-5.448 15.711-12.455 20.721 3.005-10.134 2.386-21.344.611-31.321-1.421 7.454-5.018 14.263-9.34 20.857 2.71-11.798 1.579-23.946-2.88-35.507-1.985 12.012-5.205 22.871-9.875 33.299 2.653-27.565.526-54.973-4.716-82.517-3.301 8.472-9.073 14.636-15.785 21.308 11.321-54.135 8.437-110.907-7.256-164.39 6.563 52.351 2.841 104.801-11.462 155.689 11.026-55.797 5.456-114.154-16.896-166.461 14.7 59.489 12.967 121.192-2.972 180.258 8.717-53.332 1.348-108.284-23.016-156.463 7.016 37.521 8.822 76.648 4.399 115.502-1.956 19.897-6.302 39.872-20.88 54.45 10.519-35.471 15.238-72.662 12.062-109.832-.988 27.272-6.541 53.977-15.72 79.608-4.375 12.091-10.199 23.752-21.691 30.583 6.04-12.386 9.689-24.692 10.438-37.858-4.078 13.754-13.018 25.279-25.449 32.618 2.495-11.073 3.325-21.853 2.705-33.063-1.555 10.565-6.736 20.055-13.877 28.175 3.354-13.969 2.653-27.565-1.163-41.298.191 12.658-2.734 25.179-9.794 35.686.421-43.979-9.442-87.857-27.763-127.155 8.976 38.89 11.508 78.231 9.045 118.454-5.27-35.428-18.138-69.172-37.586-99.353 10.48 33.822 16.179 67.802 19.274 102.586-12.33-24.921-24.875-49.118-39.085-73.021 8.276 25.293 16.981 49.139 26.41 73.2-18.397-20.42-36.285-39.901-54.683-60.321 16.304 22.162 32.393 45.047 48.911 66.485-25.458-9.913-49.761-21.058-73.421-34.375 20.922 17.23 44.581 30.547 70.254 39.736-26.584-.796-52.014-2.824-78.464-6.73 29.513 9.539 58.004 17.201 88.161 24.569-32.947 2.043-65.251 1.914-97.85.122 36.387 7.641 73.121 11.446 110.071 14.528-35.013 11.669-72.874 16.98-110.038 14.622 44.119 2.845 87.351.702 130.931-5.275-28.006 6.658-54.347 13.023-82.138 18.957 35.633-.459 71.185-3.304 106.146-9.475-27.71 8.321-54.266 15.41-82.782 21.129 36.439 2.143 72.797 1.9 110.014-1.24-4.913 3.269-9.612 5.813-15.25 8.866 8.109-.745 15.493-1.706 24.327-2.236-10.041 7.26-20.593 13.582-30.715 18.456l-1.288 4.343c13.533-3.074 26.556-7.088 40.089-10.163-37.938 24.19-79.663 42.531-124.398 49.741 45.675-7.719 91.053-17.101 136.055-30.533-41.939 19.066-84.981 33.866-130.145 42.524 43.07-6.916 85.119-15.71 127.302-27.615-48.976 16.191-99.268 28.841-150.366 38.89 56.846-2.832 113.959-11.884 167.848-31.343-55.821 25.974-114.275 44.867-174.503 53.783 68.528 2.996 136.651-5.941 201.764-26.01-60.333 19.911-122.064 33.895-184.978 41.227 52.443 1.376 106.093-3.978 156.814-18.076-36.973 10.299-74.243 18.936-112.318 24.971 64.015-3.068 131.251-16.994 192.362-42.187-11.248 13.99-27.439 23.365-45.026 26.813 25.563-1.083 51.77-4.337 76.151-12.07-11.492 6.83-22.768 12.937-34.475 20.491 17.078-4.386 33-7.54 49.138-11.417-12.431 7.339-23.412 15.108-35.843 22.448 12.888-.903 24.327-2.236 36.41-5.741-29.99 18.671-59.122 34.446-91.369 50.085 32.328-13.252 63.501-25.272 95.614-37.8-42.126 27.673-87.314 49.712-134.839 66.333 48.708-9.97 95.375-23.695 141.369-43.133-46.691 27.107-96.525 46.194-149.207 58.923 58.267-10.285 115.057-28.884 167.467-56.658-55.926 36.969-118.192 63.395-184.783 75.15 75.507-9.899 149.025-29.05 218.298-60.486-47.898 33.837-103.29 58.364-161.262 70.312 53.731-2.967 106.79-11.647 157.43-28.132.134-3.11.268-6.221 1.851-8.902 5.744-14.048 18.228-26.884 31.169-33.285 10.123-4.874 29.294-11.002 33.406 4.394 3.305 12.794-6.493 27.214-15.085 34.905-6.282 5.225-12.269 12.113-19.572 15.46-4.484 1.82-14.177 5.246-16.863 3.662-1.154 1.233-7.894.022-9.855-1.347-1.96-1.369-2.256-3.032-3.062-5.634-.806-2.602-.887-4.988-.753-8.099-33.697 15.209-67.985 27.093-104.611 33.558 10.285-.101 21.294.014 31.579-.086 7.599-1.685 16.648-2.939 23.388-1.728 45.326-3.884 90.409-14.929 132.644-32.332-38.286 28.025-79.634 50.415-124.555 66.234 29.966-5.29 59.126-13.181 87.185-25.337-42.098 35.557-90.749 61.295-143.779 77.859 48.412-11.633 95.213-28.469 138.951-50.938-35.682 27.221-72.68 50.902-112.444 70.612 61.488-21.143 119.832-50.307 173.369-87.198-28.699 35.594-64.166 62.091-106.32 81.88 65.223-9.798 127.274-35.5 181.025-73.114-24.081 30.662-53.399 55.045-87.444 74.089 27.925-9.045 53.593-21.122 78.67-36.525-17.125 31.149-43.543 56.393-75.575 71.308 32.704-9.203 63.286-24.548 91.101-43.864-29.585 30.604-63.897 55.869-101.782 74.562 40.651-14.722 80.201-33.708 115.964-58.543-35.735 32.719-73.51 61.682-113.971 89.061 56.359-17.151 106.566-53.454 141.814-100.493-4.88 32.418-13.172 63.037-26.753 92.874 34.203-35.535 55.622-81.163 63.775-129.936 7.551 25.078 12.201 49.296 13.093 75.55 7.594-22.949 9.684-45.957 7.209-69.53 13.971 38.008 20.343 77.701 19.33 118.354 11.435-22.598 15.619-47.347 12.123-72.798 20.821 49.49 30.283 102.7 27.071 156.09 12.747-40.324 15.21-80.547 6.153-121.823 10.049 35.27 14.594 70.483 13.93 107.302 13.257-39.385 19.264-80.919 16.651-122.648 6.615 46.853 9.175 94.079 1.666 140.681 17.689-35.708 25.952-74.211 20.305-113.688 12.735 36.854 18.382 76.332 12.724 114.032 34.461-63.022 33.161-143.741-1.76-206.864-5.075-1.505-10.151-3.01-14.286-5.024-11.682-5.827-64.749-39.678-37.712-53.712 23.279-11.998 40.012 8.715 57.604 26.533 47.845-7.074 94.225-22.462 136.505-45.362-38.9 16.815-80.01 25.1-121.66 24.563 49.94-8.816 96.58-30.426 135.94-62.069-38.26 14.642-76.98 22.849-117.53 26.576 46.89-14.449 90.33-38.582 126.28-72.024-44.01 28.69-93.33 48.716-145.452 56.887 54.102-20.183 102.302-52.358 143.002-93.842-42.96 38.453-96.53 67.459-154.631 82.517zM599.58 468.579c-1.288 4.343-1.77 11.288-8.858 13.911-6.149 2.115-17.564-9.934-21.781-14.334-5.237-6.279-7.441-14.808-9.644-23.337-3.897-16.119-4.464-32.827 3.159-47.892 6.039-12.385 18.847-15.675 28.087-4.272 9.964 11.618 9.969 32.884 11.905 47.634 1.989 9.253-.077 18.879-2.868 28.29zm123.97 233.655c-8 11.016-19.491 17.846-29.585 30.604-9.398 5.089-20.755 8.809-23.846-4.709-2.366-13.302 12.508-26.218 20.078-35.786 7.356-8.845 20.832-27.688 34.823-24.326 18.556 3.927 5.59 23.709-1.47 34.217zm-40.507-206.541c-3.225-10.407-1.374-19.309.182-29.874 1.77-11.288 5.93-22.656 9.875-33.299 2.657-6.3 4.375-12.092 9.503-16.084 4.913-3.268 8.672-5.304 14.043-2.136 6.096 3.383 8.648 8.078 11.281 15.159 3.439 9.683 5.213 19.66 7.713 29.852 2.499 10.192 3.548 19.954-.183 29.874-3.515 9.195-9.125 20.133-16.562 26.59-3.974 2.76-8.968 3.641-14.607 6.695-9.802-6.845-18.236-15.647-21.245-26.777zm123.216 225.556c.968 7.375-5.877 17.158-9.259 23.243-3.382 6.085-5.691 8.551-10.094 12.758-3.759 2.036-5.853 3.777-7.466-1.426-2.551-4.695-1.263-9.038.025-13.382 2.013-4.128 3.516-9.195 5.529-13.324 2.738-3.913 5.986-6.888 9.235-9.862 4.403-4.207 10.041-7.261 12.03 1.993zm16.262-190.494c-3.945 10.644-5.367 18.098-18.389 22.111-6.66 1.176-10.824-8.722-10.771-14.22.778-5.282 2.495-11.073 3.998-16.141 2.576-8.686 4.937-16.649 8.239-25.121 1.502-5.067 3.649-12.306 6.602-16.944 5.262-7.102 13.022-4.013 15.441 3.792 4.755 13.224-.531 33.708-5.12 46.523zm81.126 21.696c1.182 6.651-.883 16.277-3.541 22.577-2.227 4.852-8.214 11.74-11.463 14.714-11.682-5.827-6.744-22.477-2.503-31.457 2.013-4.129 4.16-11.368 8.858-13.912 4.189-3.483 7.761 3.089 8.649 8.078zM59.358 574.569c47.639 14.915 97.692 16.37 146.91 7.34-46.881 14.449-95.751 19.645-144.22 15.51 21.885 3.34 42.749 4.802 65.064 6.694-25.912 4.917-51.69 6.723-77.549 6.142-3.41-1.799-5.881-4.106-8.352-6.414-9.669-9.956-13.27-24.412-18.455-36.188C11.876 543.162 5.991 517.79 5.1 491.536c19.229 9.64 40.47 15.151 61.63 18.276 26.665 3.183 54.404 2.745 81.632 1.369-35.014 11.669-71.424 17.41-107.649 14.543 42.402 8.637 86.359 6.709 128.542-5.196-36.464 11.238-73.089 17.703-111.246 21.351 43.986 5.956 87.728 4.752 130.502-3.827-35.013 11.668-70.913 18.348-107.405 21.702 42.535 5.526 84.828 3.892 127.387-3.963-49.567 12.865-99.081 20.233-149.135 18.778z"/><path d="M147.13 672.267c54.538-.365 109.261-9.339 160.545-27.995-21.828 12.428-43.738 22.469-68.414 28.54 40.036-4.666 78.97-13.597 117.743-27.301-34.394 22.879-73.595 38.03-114.49 45.592 44.682-1.713 88.692-9.138 131.518-23.215-44.033 20.807-90.19 35.471-138.55 41.606 48.389 1.749 96.534-3.662 143.711-16.449-50.345 18.148-101.066 32.246-153.185 40.417 30.424 1.147 59.532-1.247 89.793-4.874-58.024 17.445-119.354 22.097-178.995 13.073 24.113-1.512 47.93-4.687 71.371-11.912-22.233.495-43.608-1.906-64.85-7.418 22.153-2.881 42.855-6.193 65.223-9.798-41.863.187-82.009-5.418-122.316-15.796 38.695 5.174 76.799 7.023 115.977 5.253-25.645-1.304-50.135-3.842-74.92-8.042 26.45 3.907 52.524 3.763 78.14-2.816-22.019-.23-40.012-8.716-58.301-18.865zM396.446 898.203c-28.541 19.101-58.183 33.937-90.806 45.527 31.846-6.308 61.65-16.371 91.373-28.82-36.273 23.896-76.414 39.556-118.249 47.627 34.102-3.276 66.673-9.368 99.082-20.234-29.857 15.561-60.305 27.795-93.601 33.673 19.629.308 38.667-2.71 57.113-9.053-26.179 11.138-52.439 19.89-78.994 26.978-14.664-9.074-28.549-23.43-38.514-35.048-13.241-16.528-21.436-39.435-25.494-60.327-1.183-6.652-3.468-17.568-3.067-26.9a921.655 921.655 0 00199.88-46.258c-44.301 27.028-93.195 45.606-143.864 54.207 65.437-10.522 128.537-26.462 189.944-49.992-47.521 37.886-102.188 62.628-160.885 74.361 69.707-11.618 136.189-33.644 198.722-66.291-51.576 38.259-107.96 68.792-169.234 89.212 30.181-6.013 59.046-15.567 86.594-28.662zM443.62 1005.13c55.525-27.642 106.242-63.006 151.507-103.924-16.348 25.867-35.892 49.211-59.867 68.878 37.16-18.907 70.318-42.94 99.689-72.82-29.987 39.936-70.849 76.647-112.76 103.596 34.636-15.717 67.017-34.467 97.866-56.034-55.359 53.676-121.704 93.854-195.866 115.184 21.91-10.05 42.074-22.18 58.96-39.22-24.728 11.56-49.324 20.02-74.858 28.99 30.743-10.57 59.15-26.56 83.555-47.68-37.026 15.8-76.094 27.84-115.324 35.11 23.307-4.12 45.913-21.83 67.098-32.08zM66.059 243.417c28.172 19.38 60.881 31.443 94.071 36.561-18.098 2.508-33.887 2.551-52.147.286 26.479 11.791 53.816 20.685 82.656 24.512-32.222 2.258-63.452-1.49-94.2-12.184 8.299 11.912 21.002 19.617 34.349 25.15 13.347 5.533 28.277 8.386 42.483 11.024-58.244-3.097-115.175-23.918-160.939-61.116 22.639 11.439 46.351 19.258 71.432 25.121-18.073-10.873-32.899-24.72-44.26-42.265 17.992 8.486 35.045 17.481 53.038 25.967-8.433-8.802-22.023-21.495-26.483-33.056zM283.715-75.58C351.073-15.438 396.282 68.85 410.8 158.212c-13.837-41.119-32.802-78.246-55.822-115 17.086 38.144 27.594 79.851 33.536 120.991-12.039-44.523-30.951-87.147-55.717-125.994 17.73 35.973 30.332 75.938 39.308 114.828-15.287-41.549-35.273-80.554-60.683-117.23 14.696 38.224 24.397 77.329 30.34 118.47-13.303-53.562-36.298-103.697-67.026-149.038 6.825 24.864 13.14 48.788 19.751 74.376C283.899 35.52 257.468-3.032 221.588-31c14.286 5.024 27.714 12.944 36.524 25.795-7.737-16.47-17.567-31.199-32.312-42.66 26.694 11.067 50.005 28.218 64 52.845-8.624-21.459-19.127-41.9-33.175-61.03 18.208 7.763 33.248 20.886 43.16 38.002-7.737-16.47-16.118-30.77-27.828-44.48 11.548 8.937 21.217 18.892 27.637 31.822-5.347-16.55-4.598-29.716-15.879-44.875zM777.678 126.037C759.434 67.86 750.239 8.428 709.279-42.309c26.406 51.934 41.965 108.528 46.085 166.454C731.372 58.75 702.895-4.824 671.6-66.872c12.922 28.247 20.42 58.823 27.192 89.184-12.52-37.579-30.894-71.38-53.966-102.636 13.379 34.682 21.764 70.246 28.269 106.829-14.481-38.948-32.721-75.86-55.445-110.95C627.672-57.06 634.874-28.147 640.626.336c-15.555-35.328-35.083-67.897-60.249-97.412 6.663 20.09 12.816 39.242 19.694 58.608-13.513-31.572-35.269-59.288-61.857-81.349 43.39-18.636 95.78-11.762 140.948.845l7.251 2.15c62.23 64.134 96.162 154.528 91.265 242.858zM833.025 8.565c23.587 53.46 40.81 109.76 52.1 167.45 1.766-32.554-1.248-64.95-8.102-97.698 13.217 29.909 22.594 59.467 28.938 91.276 4.962-30.031 3.908-61.058-4.744-90.401 12.115 25.644 20.82 49.49 25.337 76.819 2.195-34.002-.389-67.846-12.238-99.712 11.229 20.656 21.732 41.098 28.477 63.574-7.045-45.405-20.238-88.696-40.305-130.087.62 11.21.515 22.205 1.86 33.63-9.134-22.399-21.088-43.27-36.075-61.89 3.09 13.517 6.906 27.25 9.997 40.767-9.616-15.453-20.172-30.396-29.788-45.85 8.275 25.294 15.53 48.71 23.805 74.004-11.013-21.38-25.061-40.51-40.773-59.346 9.401 16.177 14.533 33.45 18.001 51.017-5.051-14.886-14.076-27.014-26.135-36.89 4.379 9.174 5.776 15.101 9.645 23.337zM1105.62 363.476c1.04-32.769-2.4-63.717-10.41-95.232 4.52 27.329 3.31 55.325-5.36 81.894 2.63-35.45-.98-71.172-10.52-105.503 1.62 26.469.34 52.078-5 78.059-4.98-33.765-9.87-65.144-14.84-98.909.38 25.315-3.08 50.279-9.44 74.383-.38-25.315-3.88-50.767-10.7-75.63 3.3 12.794 1.75 23.358-1.9 35.665-1.91-28.132-10.27-55.812-23.54-80.224-.75-8.099-.57-16.707 2.38-21.345 13.94 8.859 23.48 21.925 39 28.103 24.73 9.698 41.81 26.577 54.57 50.05 2.05 3.756 3.87 8.235 6.64 12.206 1.59 39.85-2.11 78.919-10.88 116.483zM1201.73 382.527c.43-1.448 1.07-3.619.78-5.282-.06 5.497.62 11.21.78 15.983 1.21 14.535 1.48 29.58 2.69 44.115-.26 27.487-1.25 54.758.88 82.166 1.88 20.248.44 41.083.44 62.349-.02 13.381-.05 26.763-1.01 40.653-21.91 10.041-44.2 16.033-68.45 20.656 18.45-6.343 35.88-14.564 51.26-26.54-32.03 14.915-65.76 22.24-101.09 24.361 35.3-10.005 66.23-29.185 91.42-55.582-15.52 15.087-34.83 24.326-56.98 27.207 20.68-11.195 37.86-26.577 51.55-46.143-24.7 19.452-52.25 32.546-82.35 40.947 29.48-19.61 54.02-43.836 74.13-71.738-12.19 14.499-27.15 25.028-45.59 31.371 27.09-19.531 48.64-47.003 61.72-77.78-21.08 20.527-45.65 36.869-71.74 50.394 27.89-16.929 48.51-43.893 58.25-74.082-18.39 22.111-40.48 40.761-66.88 52.623 35.6-29.608 65.24-65.71 87.55-106.349 5.9-9.275 10.57-19.703 12.64-29.329zM757.026 927.166c-1.37 1.957-2.228 4.852-3.597 6.809 1.369-1.957 2.738-3.913 3.597-6.809zM818.89 910.072c-4.966 8.765-8.186 19.624-11.702 28.82-5.743 14.048-10.547 27.587-15.566 41.85-10.9 10.156-19.84 21.678-24.858 35.948-8.749 24.18-2.997 52.66-17.843 73.46 6.145-23.38 7.51-46.6 5.249-70.9.114 31.54-10.353 61.51-29.601 86.52 8.158-27.51 12.261-54.65 12.739-82.86-7.943 26.79-16.611 53.36-28.69 78.13 4.714-58.46 21.97-113.984 47.2-167.144-5.099 11.876-6.788 25.552-5.148 38.639 9.26-23.244 29.1-44.925 49.907-59.231-16.538 13.21-24.939 33.558-24.21 55.038 8.105-22.011 23.676-42.595 42.523-58.27zM1022.04 967.167c-3.22 10.858-6.95 20.778-11.62 31.206-7.41 14.347-16.483 28.977-27.302 41.517-12.565 10.45-26.58 20.47-42.126 27.68 18.928-13.29 34.58-31.49 44.135-53.07-21.719 22.7-46.5 39.76-74.478 54.31 46.314-31.16 81.052-79.138 96.211-132.922 3.47 17.568-1.9 35.665-11.185 51.025 8.885-6.028 17.265-12.995 26.365-19.746zM1153.4 678.495c9.02-9.138 16.08-19.645 20.45-31.737-15.81 13.425-31.41 26.125-47.22 39.55 1.8-3.405 3.81-7.533 4.37-12.092-24.05 17.281-49.64 31.744-76.76 43.391 16.14-3.877 31.28-1.749 47.42-5.626-12.43 7.339-25.67 12.077-40.14 15.661 17.08-4.387 33.94-8.049 51.45-13.884-9.19 4.365-17.64 8.945-27.04 14.034 2.6-.803 5.42-2.329 8.75-2.917 13.24-4.738 26.18-11.138 38.91-16.815 9.18-4.364 19.09-8.514 28.49-13.603 17.39-16.105 32.32-34.518 44.56-54.515.35-3.834.48-6.945.62-10.056-17.11 17.768-35.23 33.658-53.86 48.609zM665.353 933.057c-1.045 11.504-4.266 22.363-7.486 33.221-6.631 9.06-13.986 17.904-21.127 26.025-23.518 26.107-44.35 53.787-67.143 80.107-27.624 31.98-68.215 83.73-115.664 81.47-21.804-.95-46.699-15.42-66.223-26.72 45.164-8.66 88.635-24.91 127.298-48.89-13.934 12.41-32.433 24.25-49.644 31.75 33.778-12.82 62.828-30.99 87.286-57.6-11.249 13.99-23.222 27.77-36.941 39.45 30.634-20.84 56.837-45.36 77.078-76.37-2.281 10.35-6.011 20.27-13.152 28.39 26.551-28.36 47.731-59.88 63.03-95.509-3.273 16.356-6.841 31.049-13.739 46.33 17.612-16.829 31.007-38.059 36.427-61.654zM229.708 433.71c-9.049 1.254-18.313 3.232-26.636 4.701-33.296 5.878-67.828 10.601-102.173 6.716-6.23-.272-13.91-.974-21.375-2.401-11.467-6.551-22.72-13.826-32.603-23.057 10.957 5.612 23.283 9.267 34.884 12.708-7.25-2.151-12.407-6.042-18.799-11.088 20.812 6.959 42.268 11.747 64.664 16.026-12.837-4.594-23.579-10.93-33.677-19.438 22.343 9.776 45.76 15.933 70.25 18.47l-.296-1.663c-14.42-1.913-28.492-7.661-40.04-16.599 22.181 5.003 44.281 7.619 66.381 10.235-9.13-1.133-17.831-3.713-25.888-8.465 21.027 6.236 42.483 11.024 65.308 13.855zM256.42 128.18c6.234 21.538 9.138 43.664 9.653 65.868-5.294-22.046-12.468-43.075-22.971-63.517 7.631 27.466 13.087 54.286 16.664 82.124-12.954-57.396-44.436-110.836-88.616-150.715 14.583 6.687 25.406 15.41 37.035 26.734-22.695-27.207-47.7-51.949-76.168-72.992 30.481 16.915 57.713 36.804 83.147 60.098-14.477-17.682-29.168-34.64-44.8-51.089 19.524 11.303 37.464 25.287 53.31 41.012-.806-2.602-2.551-4.695-3.358-7.297 12.14 12.264 22.4 25.545 29.841 40.352 5.91 11.991 10.666 25.215 14.911 37.5-3.411-1.799-5.667-4.831-8.648-8.078zM543.496-20.592c18.536 38.575 30.413 78.325 37.805 119.895-11.528-43.584-31.299-83.313-58.588-118.97 19.771 39.728 35.998 80.768 50.346 122.826-10.962-26.877-25.386-50.056-44.294-71.415 17.219 35.034 31.109 70.656 41.24 108.313-36.78-96.752-94.826-185.634-169.329-258.92 15.279-.982 30.853-.301 44.119 2.845 31.311 6.135 56.879 26.319 76.164 51.727 16.518 21.437 29.197 42.524 38.197 68.032-4.593-8.45-10.126-16.392-15.66-24.333zM730.659 122.332c24.956 51.504 40.944 106.65 46.218 163.343 2.949-25.902 3.508-51.726 2.402-77.256 11.524 22.319 16.174 46.537 16.77 71.128.773-26.548-1.568-53.232-8.179-78.819 8.543 19.072 15.421 38.438 19.48 59.331-5.432-40.201-9.414-79.973-14.846-120.174 2.527 18.076 1.134 33.414-2.783 51.941-3.682-16.843-7.579-32.962-11.771-50.745.567 16.708.624 32.476-.259 48.753-4.569-21.832-10.803-43.37-18.192-63.675 3.763 19.23 5.137 38.539 3.18 58.435-6.1-24.648-17.462-42.194-32.02-62.262z"/><path d="M1005.87 117.314c-5.63 66.85-18.719 132.274-40 196.056 7.566-30.834 10.353-61.51 11.179-93.555-6.412 29.601-13.334 58.263-19.746 87.864.077-18.879-.061-37.034-.199-55.189-4.775 21.424-12.48 34.103-20.666 53.727 3.751-44.567.547-89.621-9.317-133.499 10.933 18.993 19.046 39.513 22.165 60.915-1.025-23.143-2.989-45.778-6.619-68.118 9.402 16.176 16.413 32.432 19.452 51.447-3.229-31.673-5.651-60.743-8.88-92.416 10.422 18.055 18.025 37.636 22.299 57.805-1.969-43.9-7.697-85.764-17.264-127.98 9.458 31.945 18.406 62.951 28.804 94.387 2.786-30.677 1.518-60.98-5.469-90.617 7.307 17.918 12.654 34.468 16.417 53.698 2.034-17.51 2.494-32.34 1.414-49.985 4.92 17.997 6.51 36.582 6.43 55.46zM1142.11 338.857c-3.44 11.582-9.02 30.404-13.18 41.771-5.23 14.987-13.37 29.114-19.83 42.947-.43 1.447-.65 2.171-1.8 3.404-9.32 7.476-19.15 14.012-30.21 19.395 12.86-8.787 22.96-21.545 28.92-36.317-9.45 10.586-19.93 19.294-32.87 25.695 14.23-10.744 24.76-24.95 31.87-40.954-12.7 13.56-27.14 25.028-41.37 35.772 23.97-19.667 42.49-44.889 54.2-73.709 9.69-24.691 13.57-51.103 12.68-77.357 2.93 8.744 6.58 17.703 9.51 26.447 4.25 12.285 5.73 20.599 2.08 32.906z"/><path d="M915.11 678.71c6.579-3.562 12.432-7.339 18.795-10.177 4.699-2.545 10.337-5.598 15.251-8.866l14.74-9.805c4.913-3.269 9.826-6.537 14.525-9.081 4.913-3.269 9.827-6.537 15.25-8.866 9.829-6.537 19.439-12.35 29.559-17.223 5.43-2.33 10.12-4.874 15.55-7.204 5.42-2.329 10.85-4.658 16.27-6.988 10.34-5.598 20.89-11.919 29.48-19.61 4.19-3.483 8.59-7.69 12.99-11.897 4.41-4.208 8.08-8.63 11.76-13.052 8.08-8.63 15.44-17.474 20.83-27.688-6.12 9.999-14.2 18.628-22.79 26.319-4.4 4.207-8.08 8.629-12.27 12.113-4.4 4.207-8.59 7.69-13.5 10.959-9.1 6.751-19.44 12.349-29.56 17.223-5.43 2.329-10.64 3.935-16.06 6.264-5.93 1.39-11.36 3.72-16.78 6.049-10.85 4.659-21.185 10.257-31.522 15.854l-15.036 8.142c-5.424 2.33-10.337 5.598-15.25 8.866-4.914 3.269-10.337 5.598-15.036 8.143-4.699 2.544-10.122 4.873-15.546 7.203-10.123 4.873-20.46 10.471-29.938 13.173l-10.232-5.397c2.228-4.852 4.456-9.704 7.623-15.065 1.799-3.405 3.597-6.809 5.906-9.275 2.523-3.189 4.536-7.318 6.335-10.722 3.597-6.809 7.408-14.342 10.791-20.427 3.382-6.085 8.429-12.464 12.751-19.058l26.442-38.625c9.154-12.249 19.033-24.283 29.638-36.102 5.047-6.379 9.879-12.034 14.924-18.413 5.05-6.379 9.37-12.973 13.69-19.566 9.37-12.973 17.29-26.376 24.7-40.718 3.6-6.809 6.68-14.557 9.55-21.581 2.88-7.024 5.24-14.987 8.83-21.796 6.69-14.557 13.16-28.39 17.66-43.592-5.23 14.987-12.42 28.605-19.83 42.947-3.6 6.809-6.68 14.557-9.56 21.581-2.87 7.024-6.46 13.833-10.06 20.642-7.2 13.618-16.56 26.591-25.72 38.84-5.05 6.379-9.15 12.249-14.2 18.627-4.832 5.656-9.879 12.034-15.436 17.474-10.605 11.819-21.72 22.699-31.814 35.457l-28.402 37.256c-5.047 6.379-9.879 12.034-14.416 19.352-4.322 6.594-8.134 14.127-12.241 19.997-1.798 3.404-4.107 5.87-6.63 9.059-2.524 3.19-4.322 6.594-6.846 9.784-2.953 4.637-6.12 9.998-8.348 14.85l-2.175-.645-9.722-4.458-22.853-10.715.214-.724.644-2.171.644-2.172 4.079-13.754c2.791-9.411 5.582-18.822 7.648-28.447 1.502-5.068 2.28-10.35 2.843-14.908.563-4.559 1.341-9.841 2.629-14.185l6.197-28.877c2.066-9.626 4.132-19.251 5.472-29.092 1.341-9.841 2.682-19.682 3.808-28.798.563-4.559 1.34-9.841 1.903-14.4.563-4.558 1.851-8.901 3.354-13.969 2.791-9.41 6.307-18.606 9.098-28.017l8.372-28.232c2.791-9.411 4.857-19.036 7.647-28.447 2.791-9.411 5.582-18.821 7.648-28.447 1.502-5.067 2.065-9.626 2.843-14.908.563-4.559 1.341-9.841 1.904-14.399.563-4.559.615-10.056.453-14.83-.162-4.773-.324-9.546-1.211-14.535-.162-4.773-1.049-9.762-1.211-14.535-.162-4.774.615-10.056.453-14.83-.324-9.546-.433-19.817.693-28.934l5.472-29.092-1.551 31.83c-2.066 9.626-1.956 19.896-1.632 29.443.162 4.774-.401 9.332-.454 14.829.162 4.774.324 9.547.272 15.045 1.049 9.762.648 19.093-.693 28.934-.563 4.559-1.341 9.841-1.904 14.399-.563 4.559-2.065 9.626-2.628 14.185-2.066 9.625-5.582 18.821-8.373 28.232l-8.372 28.232c-2.791 9.411-5.582 18.821-9.098 28.017l-10.547 27.587-4.294 14.478c-1.502 5.067-2.065 9.626-2.843 14.908-1.341 9.841-2.681 19.681-4.532 28.583-2.066 9.626-3.917 18.528-5.983 28.154-2.791 9.41-4.857 19.036-6.922 28.662-1.503 5.067-2.066 9.626-2.844 14.908-.563 4.558-1.851 8.902-3.354 13.969-2.79 9.411-5.366 18.098-8.882 27.293l-4.804 13.539-.43 1.448-.644 2.172c-12.621-5.318-24.303-11.145-36.71-17.187-12.407-6.042-25.029-11.361-37.651-16.679-3.625-1.075-6.31-2.659-9.936-3.734 8.668-26.569 9.657-53.841 13.545-80.253.482-6.945 1.689-13.675 2.896-20.405 1.207-6.73 1.689-13.675 2.896-20.405 1.689-13.676 3.378-27.351 4.342-41.241l2.892-41.671c.964-13.89 1.928-27.781 2.167-41.886 1.202-27.996.23-56.636-6.676-83.886-7.121-26.527-12.363-54.071-22.814-80.009-4.755-13.224-9.725-25.724-14.481-38.948-2.122-6.142-4.755-13.223-6.878-19.366-1.908-6.866-4.03-13.008-5.938-19.875C699.283 57.898 672.743 9.074 657.99-44.918c13.303 53.562 39.413 103.833 54.381 157.101 1.907 6.866 3.09 13.517 5.213 19.66 1.908 6.866 4.03 13.009 6.663 20.09 4.756 13.224 9.511 26.447 13.542 39.456 8.785 26.232 14.242 53.053 20.423 80.088 6.396 26.311 6.133 53.798 4.93 81.793l-2.892 41.671c-.964 13.891-1.927 27.781-3.616 41.456-1.69 13.675-3.379 27.351-5.793 40.811l-3.621 20.19c-1.207 6.73-2.414 13.461-3.836 20.915-3.888 26.411-5.386 52.744-13.921 76.203-4.861-2.229-9.936-3.735-14.286-5.025-12.837-4.594-25.888-8.464-38.724-13.059-12.111-4.379-24.223-8.758-34.75-15.818-.377-4.049.615-10.056 2.548-16.571l2.79-9.41c1.074-3.62 1.207-6.73 2.281-10.35 2.414-13.46 3.163-26.627 3.187-40.008.025-13.381.559-25.824-.142-39.42-.457-6.437-.701-13.597-1.883-20.248-1.183-6.651-3.091-13.518-4.489-19.445-6.61-25.587-13.436-50.451-20.046-76.038-6.611-25.588-12.497-50.96-20.047-76.039-3.306-12.793-7.551-25.078-12.521-37.578-4.97-12.5-10.155-24.276-16.065-36.267a963.434 963.434 0 00-36.103-69.773c-6.85-11.483-12.974-22.75-19.824-34.232-3.062-5.633-6.85-11.482-10.852-16.606-3.787-5.849-8.004-10.25-11.791-16.098-7.064-10.758-13.914-22.24-20.978-32.999-3.788-5.848-7.065-10.758-10.852-16.606-3.062-5.634-6.124-11.267-7.307-17.919 1.183 6.652 4.245 12.285 7.092 18.643 3.063 5.633 6.85 11.482 10.127 16.391 6.85 11.482 12.974 22.75 20.038 33.508 3.788 5.848 7.79 10.973 11.067 15.882 3.787 5.849 7.064 10.758 10.126 16.392 6.125 11.267 12.975 22.75 19.099 34.016 12.035 23.258 23.344 46.301 34.224 70.792 5.185 11.776 10.155 24.276 14.615 35.837 4.245 12.284 8.49 24.569 11.795 37.363 6.826 24.863 11.772 50.745 17.657 76.117 5.886 25.372 12.497 50.96 18.383 76.332 1.182 6.651 2.58 12.579 3.977 18.506.458 6.436 1.13 12.149 1.588 18.585.191 12.657-.559 25.824-1.308 38.99-.749 13.167-1.284 25.609-4.208 38.131-.859 2.895-.992 6.006-1.851 8.901l-2.791 9.411-3.006 10.135-.643 2.171c-6.822-3.598-14.153-8.135-20.975-11.733-23.874-12.593-49.117-23.229-72.266-35.607-6.097-3.383-11.468-6.551-16.839-9.719-5.371-3.168-10.527-7.06-17.134-11.382-11.977-7.489-23.659-13.316-35.127-19.867-2.685-1.584-5.156-3.892-7.842-5.476 2.2-12.736.855-24.161-.705-34.862-1.559-10.701-3.844-21.617-5.403-32.318-2.905-22.125-6.749-43.742-12.258-65.065-10.293-42.43-25.58-83.979-42.961-123.787-9.054-20.011-18.107-40.022-27.375-59.309-9.993-19.503-20.925-38.496-33.012-56.257-6.044-8.88-12.087-17.76-18.856-26.856-6.044-8.88-13.752-17.466-20.95-25.114-15.121-15.51-32.336-29.278-44.208-47.763 11.872 18.485 27.933 33.486 43.054 48.996 7.198 7.647 14.181 16.019 20.225 24.9 6.043 8.88 11.872 18.484 17.916 27.364 11.147 18.27 22.08 37.263 31.133 57.274 9.053 20.011 17.381 39.808 25.709 59.604 16.442 40.316 29.554 81.22 38.907 124.159 4.784 21.108 7.903 42.51 10.297 63.696 1.345 11.425 2.904 22.126 3.739 32.612.753 8.099 1.507 16.198.81 23.867-3.921-2.738-7.842-5.476-11.977-7.49a404.595 404.595 0 00-36.496-17.911c-12.407-6.042-24.304-11.145-36.711-17.187-11.682-5.827-22.935-13.102-33.972-21.101-11.038-7.999-22.291-15.273-35.638-20.807l-2.175-.645.725.215c.454-14.829-1.483-29.579-5.084-44.036-3.601-14.456-10.961-26.877-16.656-39.592-2.848-6.357-4.97-12.5-7.093-18.642-1.907-6.867-3.815-13.733-4.998-20.384-3.091-13.518-6.907-27.25-12.387-40.689-1.317-3.541-2.848-6.358-4.164-9.898l-4.379-9.174-8.543-19.073c-5.695-12.714-12.33-24.92-20.63-36.833-7.574-11.697-17.029-22.376-26.483-33.055-4.727-5.34-9.454-10.68-15.335-14.787-4.942-4.615-12.193-6.766-16.92-12.105 4.727 5.34 11.763 8.214 16.705 12.83 4.942 4.615 9.883 9.23 14.396 15.294 8.514 11.189 17.243 21.653 24.603 34.074 6.85 11.482 13.27 24.412 18.24 36.912 2.848 6.357 5.696 12.715 7.604 19.581l4.164 9.898c1.316 3.541 2.847 6.357 3.439 9.683 4.03 13.009 7.121 26.526 10.211 40.044 1.183 6.651 3.091 13.518 4.059 20.893 1.908 6.866 3.816 13.732 6.449 20.814 5.48 13.438 11.39 25.429 13.971 38.008 2.795 11.855 3.925 24.003 3.39 36.446-7.975-2.365-15.226-4.516-21.833-8.837-22.934-13.102-42.272-33.013-65.717-47.054-23.445-14.041-47.963-24.462-68.884-41.692 20.921 17.23 45.735 29.314 68.24 43.864 22.506 14.549 40.903 34.969 64.348 49.01 6.097 3.383 12.193 6.766 18.718 8.701 6.526 1.935 13.051 3.87 18.637 6.314 2.9.861 4.861 2.23 7.546 3.814-1.154 1.232-3.034 2.25-4.698 2.544-2.82 1.527-7.089 2.623-10.418 3.211l-11.869 2.781c-4.269 1.096-7.813 2.408-12.083 3.505-15.627 4.816-30.743 10.571-46.452 13.001-31.631 5.584-64.445 4.516-97.044 2.724 32.68 4.178 65.575 7.633 98.012 4.651 16.944-1.275 32.571-6.092 48.709-9.969 4.269-1.097 7.599-1.685 11.868-2.781l12.379-1.842c4.054-.373 8.324-1.47 12.808-3.29 4.269-1.097 8.968-3.641 12.645-8.063 4.647 2.953 8.353 6.414 12.999 9.367 11.038 7.999 22.076 15.998 34.268 22.764s23.874 12.593 36.281 18.635c11.682 5.827 24.089 11.869 35.556 18.42 5.372 3.168 11.253 7.275 16.41 11.167.725.215 1.235 1.153 1.235 1.153-5.853 3.778-10.981 7.77-16.834 11.547-3.034 2.251-6.793 4.286-9.612 5.813-3.759 2.035-7.303 3.347-10.337 5.597-14.607 6.695-29.938 13.174-45.055 18.929-15.331 6.48-29.427 14.113-44.84 18.205-15.412 4.093-31.765 8.694-47.687 11.848-7.599 1.684-16.138 3.878-23.522 4.838-7.599 1.684-15.708 2.43-23.818 3.175-8.109.746-16.218 1.491-24.542 2.96-8.324 1.47-15.923 3.154-24.247 4.623-4.269 1.097-8.324 1.469-11.653 2.057l-12.164 1.118-36.492 3.355c-4.055.372-7.895.021-11.95.394-7.894.021-16.647 2.938-24.408-.151 3.41 1.799 8.19 1.642 12.245 1.269 4.054-.373 8.109-.745 11.949-.394s8.62.193 12.46.544l11.949-.394 24.623-.573c4.055-.373 7.895-.022 11.95-.394 4.054-.373 8.109-.746 12.378-1.842 8.324-1.47 15.923-3.154 24.032-3.899 8.11-.746 16.219-1.491 24.113-1.513 8.11-.745 16.004-.767 25.053-2.021 8.324-1.469 16.648-2.939 24.033-3.899 15.922-3.154 31.845-6.307 47.983-10.185 8.324-1.469 16.352-4.601 24.38-7.733 8.028-3.132 15.332-6.48 22.42-9.103 15.117-5.755 30.959-11.296 46.29-17.775 3.759-2.035 7.303-3.347 11.787-5.167l11.277-6.107c6.793-4.286 13.801-9.296 20.593-13.582l-.672-5.713c1.235 1.154 3.196 2.523 5.156 3.892 11.763 8.214 23.445 14.041 34.698 21.316 5.156 3.892 11.038 7.999 16.409 11.167 5.881 4.107 11.978 7.489 17.349 10.657 12.192 6.766 23.874 12.593 36.281 18.636 7.546 3.813 15.092 7.626 21.914 11.224-4.403 4.207-9.531 8.199-14.659 12.191l-6.283 5.225-6.282 5.225c-4.188 3.483-7.652 7.182-11.625 9.941-15.814 13.425-32.648 24.971-50.932 36.088-36.139 20.785-74.831 36.876-115.349 48.487-20.621 5.698-41.028 10.672-61.435 15.646-10.203 2.487-20.621 5.698-30.825 8.185-4.994.882-9.989 1.763-15.708 2.43-2.39.079-4.994.882-8.109.745-2.605.803-4.995.882-7.599 1.685-20.917 4.035-41.324 9.009-62.241 13.044-9.989 1.763-20.703 3.312-31.202 4.136-4.995.881-10.499.824-15.494 1.706-4.779.157-10.499.824-15.574-.681 4.861 2.229 10.58 1.562 15.36 1.405 5.504.057 10.499-.825 16.004-.767 10.499-.825 20.998-1.649 31.712-3.197 20.702-3.311 41.619-7.347 62.537-11.382 4.994-.881 9.988-1.763 15.708-2.429 4.994-.882 10.499-.825 16.218-1.491 10.929-2.272 20.407-4.974 31.336-7.246 20.407-4.975 41.324-9.01 61.731-13.984 41.538-9.733 81.68-25.394 119.269-45.749 18.795-10.178 36.569-22.233 53.832-35.228l12.565-10.45c2.094-1.741 4.188-3.483 6.068-4.501 2.094-1.741 3.973-2.759 6.068-4.501 6.067-4.501 13.075-9.511 19.787-16.184 11.467 6.551 22.934 13.102 34.187 20.377 11.763 8.214 25.109 13.747 37.946 18.341l29.808 11.203c-3.678 4.422-8.081 8.629-12.484 12.837l-21.719 22.699-22.444 22.483c-3.463 3.699-6.927 7.397-11.329 11.604-3.464 3.699-7.142 8.121-10.605 11.819-6.416 8.336-12.832 16.672-19.758 24.068-1.37 1.957-3.464 3.699-4.833 5.655-2.094 1.742-3.463 3.699-5.557 5.44-3.463 3.699-7.141 8.121-10.605 11.819-7.141 8.121-13.342 15.733-20.994 22.914a453084.21 453084.21 0 01-22.954 21.545c-15.814 13.425-31.627 26.849-49.401 38.905-8.887 6.027-17.559 11.331-26.231 16.635l-26.957 16.42c-18.284 11.117-36.354 21.51-55.444 30.024-19.091 8.515-39.202 15.152-59.823 20.85 20.406-4.974 40.303-10.887 60.118-19.187 19.601-7.576 38.396-17.753 56.465-28.146l27.467-15.482c9.398-5.088 18.07-10.392 26.957-16.42 17.559-11.331 34.823-24.326 50.636-37.75 8.377-6.967 16.028-14.149 23.68-21.33a506.521 506.521 0 0022.444-22.484l10.39-11.095c2.094-1.742 3.463-3.699 5.557-5.44 2.094-1.742 4.188-3.484 5.772-6.164 7.141-8.121 13.557-16.456 20.484-23.853l10.39-11.095c3.463-3.698 7.651-7.182 11.114-10.88l45.909-43.09c5.558-5.44 11.115-10.88 16.887-17.044 9.936 3.734 20.383 8.407 30.104 12.865 11.897 5.103 24.304 11.146 35.986 16.973l22.639 11.439c-.43 1.447-1.369 1.956-1.584 2.68-2.228 4.852-4.456 9.705-7.194 13.618l-4.107 5.87-4.322 6.594c-2.738 3.914-5.691 8.551-9.154 12.249l-18.524 25.222c-6.416 8.336-12.321 17.61-17.287 26.376l-7.919 13.403c-2.953 4.637-5.181 9.489-7.919 13.403-5.181 9.489-9.421 18.47-13.662 27.45-2.228 4.853-4.966 8.766-7.194 13.618-2.738 3.914-5.691 8.551-8.429 12.464-5.691 8.551-12.107 16.887-18.309 24.498-12.617 15.948-26.175 32.404-38.792 48.351l-9.879 12.034-10.39 11.095c-6.926 7.397-14.578 14.579-22.23 21.76-15.088 13.64-32.137 25.91-49.186 38.181-8.162 6.242-16.834 11.546-26.231 16.635-8.673 5.308-18.07 10.388-26.742 15.698a299.2 299.2 0 0127.252-14.759c9.398-5.089 18.07-10.393 26.742-15.697 16.834-11.546 33.883-23.817 50.422-37.026 8.162-6.243 15.813-13.424 22.739-20.821 3.464-3.699 6.927-7.397 10.605-11.819l10.604-11.819c13.343-15.732 27.196-30.526 40.753-46.982 6.416-8.336 12.832-16.671 19.033-24.283 2.739-3.913 6.417-8.335 9.369-12.973 2.953-4.637 5.906-9.274 7.919-13.403 5.181-9.489 9.422-18.47 14.388-27.235 4.966-8.766 10.657-17.317 15.623-26.082 5.691-8.551 11.382-17.102 16.858-24.928l19.034-24.283c3.463-3.699 6.416-8.336 9.879-12.034l5.047-6.379c1.369-1.957 2.738-3.914 4.322-6.594 2.953-4.637 5.181-9.49 7.408-14.342.43-1.448 1.369-1.957 1.799-3.404l.725.215 36.496 17.911 1.45.43c-1.369 1.956-3.249 2.974-4.618 4.931-2.308 2.465-3.678 4.422-5.261 7.103-1.584 2.68-3.168 5.361-4.027 8.256-2.442 5.577-3.945 10.644-5.958 14.772-2.228 4.853-4.456 9.705-6.898 15.281-9.126 20.133-16.076 40.911-23.027 61.689-3.006 10.135-6.951 20.778-9.231 31.128l-8.506 31.343c-3.006 10.134-6.226 20.993-9.956 30.913-3.731 9.919-7.461 19.839-12.132 30.267-4.455 9.705-8.911 19.409-13.581 29.838-4.456 9.704-8.401 20.348-12.132 30.267-3.73 9.92-7.675 20.563-11.406 30.479-3.73 9.92-8.401 20.35-12.856 30.06l-6.684 14.55c-2.227 4.86-4.455 9.71-6.683 14.56-4.456 9.71-10.361 18.98-16.992 28.04-12.322 17.61-27.329 33.64-42.336 49.66 15.007-16.02 30.525-31.11 43.571-48.51 6.631-9.06 12.322-17.61 17.718-27.82 2.227-4.85 4.455-9.71 6.683-14.56l6.683-14.55c4.456-9.71 9.851-19.92 13.582-29.84 4.455-9.706 8.401-20.35 12.131-30.27 3.731-9.919 8.401-20.348 12.856-30.052 4.456-9.705 9.637-19.194 14.307-29.623 4.456-9.704 9.126-20.133 12.856-30.052 3.946-10.644 7.676-20.563 10.896-31.422l9.956-30.913c3.006-10.134 6.951-20.778 10.682-30.697 6.95-20.779 14.411-40.618 24.048-59.812 2.227-4.852 4.455-9.704 7.408-14.342 3.168-5.361 4.67-10.428 6.898-15.28.644-2.172 2.013-4.129 3.382-6.085 1.369-1.957 2.738-3.914 4.833-5.655 1.369-1.957 3.463-3.699 5.557-5.441.94-.508 2.094-1.741 3.034-2.25 5.371 3.168 11.682 5.827 17.053 8.995-.215.724.081 2.387-.134 3.111-.429 1.447-.348 3.834-.992 6.006.296 1.663-.348 3.834-.053 5.497.243 7.16.701 13.597 1.669 20.972 2.151 14.026 6.182 27.035 10.212 40.044 7.336 25.802 12.282 51.683 18.463 78.718 6.396 26.312 8.738 52.996 9.414 79.974-.048 26.762-7.052 53.038-10.94 79.447 5.553-26.703 14.007-52.548 14.995-79.82.988-27.272-.414-54.465-5.87-81.285-4.731-26.605-8.523-53.719-14.919-80.03-3.305-12.794-6.396-26.312-7.526-38.46-.458-6.436-.701-13.597-.648-19.094-.296-1.663.133-3.111.563-4.558.214-.724.429-1.448-.081-2.387l60.666 32.167 284.184 153.581 13.1-22.892L915.11 678.71z"/>
	</symbol>

</svg>