<svg xmlns="http://www.w3.org/2000/svg" width="1333.333" height="208"><defs><clipPath id="prefix__a"><path d="M0 156h1000V0H0z"/></clipPath><clipPath id="prefix__b"><path d="M0 156h1000V0H0z"/></clipPath></defs><g clip-path="url(#prefix__a)" transform="matrix(1.33333 0 0 -1.33333 0 208)"><path d="M448.34 14.362l-38.808 126.275h24.22l25.553-84.7 26.792 84.7h16.4l27.271-84.7 24.41 84.7h20.977c-12.968-42.09-25.937-84.183-38.904-126.275h-15.828l-27.748 87.331c-9.375-29.11-18.75-58.22-28.127-87.33zM597.088 14.362v126.275h103.259v-21.515h-79.745V90.947h46.62V69.431h-46.62V38.183h80.767v-23.82zM756.22 83.519v35.347h52.62c4.06 0 6.836-.741 8.327-2.223 1.492-1.482 2.237-4.067 2.237-7.754V93.617c0-3.768-.745-6.392-2.237-7.875-1.491-1.482-4.266-2.223-8.326-2.223zm49.86-21.515h13.132c8.044 0 13.87 1.944 17.478 5.833 3.606 3.889 5.41 10.078 5.41 18.568v29.816c0 8.575-1.804 14.788-5.41 18.639-3.608 3.852-9.434 5.778-17.478 5.778h-86.096V14.362h23.105v47.642h22.21l40.605-47.642h33.649L806.08 62.004M878.345 14.362v126.275h23.719V87.953l55.84 52.684h33.923c-22.233-19.832-44.467-39.664-66.702-59.495l74.882-66.78h-37.633l-60.31 55.55v-55.55z" fill="#313131"/></g><path d="M193.63 188.85V20.484h137.68V49.17H224.982v37.567h62.16v28.688h-62.16v41.664h107.69v31.761z" fill="#ed474a"/><g clip-path="url(#prefix__b)" transform="matrix(1.33333 0 0 -1.33333 0 208)"><path d="M23.1 83.519v35.347h52.62c4.058 0 6.834-.741 8.325-2.223 1.491-1.482 2.236-4.067 2.236-7.754V93.617c0-3.768-.745-6.392-2.236-7.875-1.49-1.482-4.267-2.223-8.326-2.223zm49.858-21.515H86.09c8.045 0 13.871 1.944 17.478 5.833 3.607 3.889 5.41 10.078 5.41 18.568v29.816c0 8.575-1.803 14.788-5.41 18.639-3.607 3.852-9.433 5.778-17.478 5.778H-.006V14.362H23.1v47.642H45.31l40.604-47.642h33.648L72.958 62.004M369.484 47.62c-6.746-6.29-18.2-9.437-34.364-9.437h-30.355v79.915h41.62c10.946 0 19.218-3.326 24.818-9.976 5.6-6.65 8.4-16.425 8.4-29.325 0-14.493-3.373-24.886-10.119-31.177m19.34 76.771c-9.94 10.831-24.15 16.247-42.63 16.247H281.25V14.362h58.93c10.161 0 18.498.777 25.01 2.33 6.51 1.552 11.958 4.042 16.341 7.468 7.05 5.416 12.513 12.843 16.387 22.28 3.874 9.437 5.811 20.05 5.811 31.836 0 19.912-4.969 35.284-14.907 46.115" fill="#ed474a"/></g></svg>