<svg xmlns="http://www.w3.org/2000/svg">

	<symbol id="apple" viewBox="0 0 26 30">
		<path d="M21.0713 15.854C21.0569 13.3949 22.171 11.5416 24.4209 10.1751C23.1626 8.37227 21.2588 7.38072 18.7493 7.18962C16.3732 7.00213 13.7735 8.57419 12.8216 8.57419C11.8156 8.57419 9.51525 7.25453 7.70523 7.25453C3.9698 7.31222 0 10.2328 0 16.1749C0 17.9308 0.320901 19.7444 0.962703 21.6121C1.82084 24.0712 4.91447 30.0962 8.14151 29.9988C9.82894 29.9592 11.0224 28.8018 13.2182 28.8018C15.3492 28.8018 16.4525 29.9988 18.3346 29.9988C21.5905 29.952 24.3885 24.475 25.2033 22.0088C20.8369 19.9499 21.0713 15.9801 21.0713 15.854ZM17.2818 4.85678C19.1098 2.68619 18.944 0.710309 18.8899 0C17.2746 0.0937464 15.4069 1.09972 14.3432 2.33645C13.1714 3.66332 12.4827 5.30388 12.6305 7.15357C14.3756 7.28698 15.9693 6.38917 17.2818 4.85678Z"/>
	</symbol>

	<symbol id="chevron-down" width="23" height="15" viewBox="0 0 23 15">
		<path d="M3.70891 0L0 3.70628L11.1215 14.8278L22.243 3.70628L18.534 0L11.1215 7.41519L3.70891 0Z" />
	</symbol>

	<symbol id="logo" viewBox="0 0 1333 208" stroke="none">
		<g transform="matrix(1.33333 0 0 -1.33333 0 208)">
			<path d="M448.34 14.362l-38.808 126.275h24.22l25.553-84.7 26.792 84.7h16.4l27.271-84.7 24.41 84.7h20.977c-12.968-42.09-25.937-84.183-38.904-126.275h-15.828l-27.748 87.331c-9.375-29.11-18.75-58.22-28.127-87.33zM597.088 14.362v126.275h103.259v-21.515h-79.745V90.947h46.62V69.431h-46.62V38.183h80.767v-23.82zM756.22 83.519v35.347h52.62c4.06 0 6.836-.741 8.327-2.223 1.492-1.482 2.237-4.067 2.237-7.754V93.617c0-3.768-.745-6.392-2.237-7.875-1.491-1.482-4.266-2.223-8.326-2.223zm49.86-21.515h13.132c8.044 0 13.87 1.944 17.478 5.833 3.606 3.889 5.41 10.078 5.41 18.568v29.816c0 8.575-1.804 14.788-5.41 18.639-3.608 3.852-9.434 5.778-17.478 5.778h-86.096V14.362h23.105v47.642h22.21l40.605-47.642h33.649L806.08 62.004M878.345 14.362v126.275h23.719V87.953l55.84 52.684h33.923c-22.233-19.832-44.467-39.664-66.702-59.495l74.882-66.78h-37.633l-60.31 55.55v-55.55z" fill="#313131"/>
		</g>
		<path d="M193.63 188.85V20.484h137.68V49.17H224.982v37.567h62.16v28.688h-62.16v41.664h107.69v31.761z" fill="#ed474a"/>
		<g transform="matrix(1.33333 0 0 -1.33333 0 208)">
			<path d="M23.1 83.519v35.347h52.62c4.058 0 6.834-.741 8.325-2.223 1.491-1.482 2.236-4.067 2.236-7.754V93.617c0-3.768-.745-6.392-2.236-7.875-1.49-1.482-4.267-2.223-8.326-2.223zm49.858-21.515H86.09c8.045 0 13.871 1.944 17.478 5.833 3.607 3.889 5.41 10.078 5.41 18.568v29.816c0 8.575-1.803 14.788-5.41 18.639-3.607 3.852-9.433 5.778-17.478 5.778H-.006V14.362H23.1v47.642H45.31l40.604-47.642h33.648L72.958 62.004M369.484 47.62c-6.746-6.29-18.2-9.437-34.364-9.437h-30.355v79.915h41.62c10.946 0 19.218-3.326 24.818-9.976 5.6-6.65 8.4-16.425 8.4-29.325 0-14.493-3.373-24.886-10.119-31.177m19.34 76.771c-9.94 10.831-24.15 16.247-42.63 16.247H281.25V14.362h58.93c10.161 0 18.498.777 25.01 2.33 6.51 1.552 11.958 4.042 16.341 7.468 7.05 5.416 12.513 12.843 16.387 22.28 3.874 9.437 5.811 20.05 5.811 31.836 0 19.912-4.969 35.284-14.907 46.115" fill="#ed474a"/>
		</g>
	</symbol>

	<symbol id="search" width="20" height="20" viewBox="0 0 20 20" fill="none">
		<path d="M18.375 18.375L14.4497 14.4428M16.625 9.1875C16.625 11.16 15.8414 13.0518 14.4466 14.4466C13.0518 15.8414 11.16 16.625 9.1875 16.625C7.21495 16.625 5.3232 15.8414 3.92839 14.4466C2.53359 13.0518 1.75 11.16 1.75 9.1875C1.75 7.21495 2.53359 5.3232 3.92839 3.92839C5.3232 2.53359 7.21495 1.75 9.1875 1.75C11.16 1.75 13.0518 2.53359 14.4466 3.92839C15.8414 5.3232 16.625 7.21495 16.625 9.1875V9.1875Z" stroke-width="2" stroke-linecap="round"/>
	</symbol>

</svg>